<?xml version="1.0" encoding="UTF-8" standalone="no"?>
<svg
   version="1.1"
   viewBox="0 0 640 512"
   id="svg2"
   sodipodi:docname="favicon.svg"
   inkscape:version="1.3.2 (091e20e, 2023-11-25, custom)"
   xmlns:inkscape="http://www.inkscape.org/namespaces/inkscape"
   xmlns:sodipodi="http://sodipodi.sourceforge.net/DTD/sodipodi-0.dtd"
   xmlns="http://www.w3.org/2000/svg"
   xmlns:svg="http://www.w3.org/2000/svg">
  <defs
     id="defs2" />
  <sodipodi:namedview
     id="namedview2"
     pagecolor="#ffffff"
     bordercolor="#000000"
     borderopacity="0.25"
     inkscape:showpageshadow="2"
     inkscape:pageopacity="0.0"
     inkscape:pagecheckerboard="0"
     inkscape:deskcolor="#d1d1d1"
     showgrid="false"
     inkscape:zoom="0.99414062"
     inkscape:cx="319.87426"
     inkscape:cy="231.85855"
     inkscape:window-width="1366"
     inkscape:window-height="705"
     inkscape:window-x="-8"
     inkscape:window-y="-8"
     inkscape:window-maximized="1"
     inkscape:current-layer="svg2" />
  <rect
     style="fill:#0000ff;fill-opacity:1;stroke:none;stroke-width:1;stroke-dasharray:none;stroke-opacity:1"
     id="rect2"
     width="640"
     height="512"
     x="0"
     y="0"
     ry="27.159136" />
  <path
     d="m603.35.00011462c31.607-.045002 31.972 12.867 34.515 27.315 14.506 82.389-46.536 169.29-131.77 213.6 18.797-.99405 37.352-6.6583 53.158-14.432-47.456 78.637-93.153 128.83-214.82 137.64 17.634 22.721 35.441 17.712 57.627 19.175-8.5224 11.641-45.516 17.688-60.222 7.4784 12.258 26.234 12.527 34.144 8.7814 47.589-11.076-3.7652-10.431-19.322-36.664-27.748 8.8114 26.51 3.9612 34.258-1.096 39.258-3.7382-6.6743-3.5252-26.27-18.495-34.898 11.165 27.443 5.9373 42.23.41402 53.26-7.4984-18.021-6.9974-37.494-17.236-53.129-27.28 30.177-54.517 65.133-81.891 85.014-18.675 18.989-27.662 14.511-12.457-8.4524 17.934-34.152 41.756-64.953 66.156-95.965-8.9745-22.91-22.132-27.171-40.88-29.118 4.4342-2.9472 14.299-10.59 32.21-4.4562-2.1751-7.6304-17.104-38.235-7.4014-50.405 3.5372 7.3894 3.5712 14.375 12.791 22.329-3.5352-29.697 2.1371-54.518 16.342-61.803 1.4251 20.698-1.5021 25.948 15.812 50.34-8.4384-60.857 12.266-113.44 45.048-155.94-2.7581 22.433-12.159 33.698-.78003 79.904 24.136-113.11 131.51-233.28 280.86-246.55zm-22.619 39.356c-97.464 37.778-237.33 206.79-259.54 318.68 40.997-67.818 126.85-211.31 280.73-304.8 20.999-20.893-4.3672-23.063-21.19-13.887z"
     fill="#ff6a00"
     id="path1" />
  <path
     d="m137.98 39.997c56.229 199.01 75.813 399.11-118.54 471.92 247.92-40.914 207.23-268.21 195.08-429.01h180.48l54.004-42.9zm-79.309 64.213c31.67 65.576 103.3 304.34-58.67 407.79 145.07-55.934 185.52-192.04 121.35-408.32zm-9.7335 64.492c39.348 86.254 38.128 204.89 6.9073 257.41 6.0753-70.899 3.0782-174.53-55.845-257.44z"
     fill="#fff"
     id="path2" />
</svg>
